HIERARCHY
ROOT ui
{
	 OFFSET 0 0 0
	 CHANNELS 3 XPosition YPosition Z Position
	 EndSite
	 {
	 OFFSET 0 -1 0
	 }
}
ROOT li
{
	 OFFSET 0 0 0
	 CHANNELS 3 XPosition YPosition Z Position
	 EndSite
	 {
	 OFFSET 0 -1 0
	 }
}
ROOT ul
{
	 OFFSET 0 0 0
	 CHANNELS 3 XPosition YPosition Z Position
	 EndSite
	 {
	 OFFSET 0 -1 0
	 }
}
ROOT ll
{
	 OFFSET 0 0 0
	 CHANNELS 3 XPosition YPosition Z Position
	 EndSite
	 {
	 OFFSET 0 -1 0
	 }
}
ROOT tt
{
	 OFFSET 0 0 0
	 CHANNELS 3 XPosition YPosition Z Position
	 EndSite
	 {
	 OFFSET 0 -1 0
	 }
}
ROOT tb
{
	 OFFSET 0 0 0
	 CHANNELS 3 XPosition YPosition Z Position
	 EndSite
	 {
	 OFFSET 0 -1 0
	 }
}
ROOT td
{
	 OFFSET 0 0 0
	 CHANNELS 3 XPosition YPosition Z Position
	 EndSite
	 {
	 OFFSET 0 -1 0
	 }
}
ROOT v
{
	 OFFSET 0 0 0
	 CHANNELS 3 XPosition YPosition Z Position
	 EndSite
	 {
	 OFFSET 0 -1 0
	 }
}
ROOT bn
{
	 OFFSET 0 0 0
	 CHANNELS 3 XPosition YPosition Z Position
	 EndSite
	 {
	 OFFSET 0 -1 0
	 }
}
MOTION
Frames: 13
Frame Time: 0.002
7.708309888839721E-4	4.960649907588959E-4	0		0.4646295471191406	-2.29954296875	0		-1.1246229248046875	0.03904512786865234	0		-0.7093756713867188	-2.448860595703125	0		1.3946220703125	-0.5947886352539062	0		2.982038818359375	0.09757579040527344	0		4.59034765625	0.17224407958984375	0		5.6354990234375	0.203787353515625	0		-0.1987261657714844	5.9901708984375	0		
0.0026961309909820557	0.011946426391601563	0		0.45658035278320314	-2.288838134765625	0		-1.12089453125	0.04242599868774414	0		-0.7225181274414062	-2.442056396484375	0		1.384343017578125	-0.5920137329101562	0		2.98362255859375	0.13610342407226564	0		4.59312255859375	0.17776551818847655	0		5.63643994140625	0.2515056915283203	0		-0.20019122314453125	5.99069384765625	0		
-0.004833271980285644	0.004633460998535156	0		0.45217047119140624	-2.293216064453125	0		-1.12942431640625	0.03511443710327149	0		-0.6981533203125	-2.456164306640625	0		1.378825439453125	-0.5993472290039062	0		2.961728515625	0.11419801330566406	0		4.5947822265625	0.1783243713378906	0		5.637296875	0.2196454315185547	0		-0.20164950561523437	5.99122802734375	0		
-3.099449872970581E-4	-9.57148015499115E-4	0		0.40100100708007813	-2.28743359375	0		-1.129778076171875	0.034621646881103516	0		-0.72878955078125	-2.469911865234375	0		1.4184237060546876	-0.6027650756835937	0		2.960666259765625	0.1258087387084961	0		4.59442578125	0.17794728088378906	0		5.62996826171875	0.2246363983154297	0		-0.21636355590820314	5.9810986328125	0		
-0.005531999111175537	0.003713382959365845	0		0.4515632934570312	-2.294117919921875	0		-1.12605224609375	0.03705111694335937	0		-0.7331829223632812	-2.47427734375	0		1.383978271484375	-0.6073564453125	0		2.97599658203125	0.11203056335449219	0		4.59407666015625	0.17758750915527344	0		5.62972314453125	0.22404533386230469	0		-0.216826416015625	5.98064453125	0		
-0.00586894702911377	0.0032866270542144774	0		0.4024546813964844	-2.286343994140625	0		-1.12229345703125	0.04050462341308594	0		-0.7247440185546875	-2.485933837890625	0		1.3836527099609375	-0.607757080078125	0		2.95537060546875	0.14116302490234375	0		4.5869091796875	0.1844157409667969	0		5.64066748046875	0.20032884216308594	0		-0.20206088256835938	5.98884521484375	0		
0.005849853038787842	0.004592905998229981	0		0.45303228759765624	-2.292978271484375	0		-1.1226204833984375	0.04008380126953125	0		-0.7301705932617187	-2.49222412109375	0		1.377509521484375	-0.6009891967773437	0		2.97947412109375	0.11721296691894531	0		4.59655224609375	0.18285354614257812	0		5.63222705078125	0.23490147399902345	0		-0.20346934509277342	5.98946484375	0		
-0.006508430004119873	0.0025123980045318605	0		0.39984634399414065	-2.289054931640625	0		-1.1270303955078125	0.035790294647216794	0		-0.6698006591796875	-2.50808984375	0		1.420877197265625	-0.6154061889648438	0		2.983474365234375	0.12978848266601561	0		4.58145947265625	0.19191972351074219	0		5.638421875	0.23403697204589843	0		-0.21812200927734374	5.97943212890625	0		
-0.006805334091186523	0.0021675009727478026	0		0.4483761291503906	-2.298582763671875	0		-1.131399658203125	0.03252608871459961	0		-0.7111679077148437	-2.512446533203125	0		1.3676541748046875	-0.6124404907226563	0		2.9740322265625	0.12371086883544923	0		4.5879873046875	0.18447821044921875	0		5.62882080078125	0.22203019714355468	0		-0.2185121307373047	5.979083984375	0		
-0.0022051849365234376	-0.003268834114074707	0		0.4091196594238281	-2.2989443359375	0		-1.127605224609375	0.03509548187255859	0		-0.6728331909179688	-2.5307158203125	0		1.37321435546875	-0.6198807373046875	0		2.949809326171875	0.12602029418945312	0		4.58568408203125	0.18327706909179686	0		5.62862451171875	0.22162077331542968	0		-0.20463624572753905	5.98842138671875	0		
0.004710908889770508	0.0032713520526885987	0		0.46180975341796876	-2.30351318359375	0		-1.11968994140625	0.041596424102783205	0		-0.7408856811523438	-2.5233623046875	0		1.379138916015625	-0.6132979736328125	0		2.978328369140625	0.11606999969482422	0		4.5764326171875	0.18326895141601562	0		5.6332119140625	0.1984723358154297	0		-0.20301690673828124	5.9860830078125	0		
0.004489048957824707	0.003012027978897095	0		0.453885498046875	-2.292575927734375	0		-1.1199122314453125	0.041323375701904294	0		-0.6814828491210938	-2.541082763671875	0		1.4167919921875	-0.619461669921875	0		2.966739990234375	0.14213066101074218	0		4.5845458984375	0.19686705017089845	0		5.64065283203125	0.24441639709472657	0		-0.20428720092773436	5.98684521484375	0		
0.017249401092529298	4.655410051345825E-4	0		0.4475556640625	-2.29965478515625	0		-1.1282674560546875	0.034275474548339846	0		-0.6780555419921875	-2.5584140625	0		1.369504150390625	-0.6235354614257812	0		2.953972412109375	0.1182303695678711	0		4.5802119140625	0.19078533935546876	0		5.63112939453125	0.23256167602539063	0		-0.2055166015625	5.98763525390625	0		
